<svg width="21" height="21" viewBox="0 0 21 21" fill="none" xmlns="http://www.w3.org/2000/svg">
<path d="M7.33333 1.87598H14.3333C17 1.87598 19.1667 4.05353 19.1667 6.7336V13.7688C19.1667 15.0571 18.6574 16.2927 17.751 17.2036C16.8446 18.1146 15.6152 18.6264 14.3333 18.6264H7.33333C4.66667 18.6264 2.5 16.4488 2.5 13.7688V6.7336C2.5 5.44528 3.00922 4.20972 3.91565 3.29874C4.82208 2.38776 6.05145 1.87598 7.33333 1.87598ZM7.16667 3.55102C6.37102 3.55102 5.60796 3.86868 5.04535 4.43411C4.48274 4.99955 4.16667 5.76645 4.16667 6.56609V13.9363C4.16667 15.6029 5.50833 16.9514 7.16667 16.9514H14.5C15.2956 16.9514 16.0587 16.6337 16.6213 16.0683C17.1839 15.5028 17.5 14.7359 17.5 13.9363V6.56609C17.5 4.89943 16.1583 3.55102 14.5 3.55102H7.16667ZM15.2083 4.8073C15.4846 4.8073 15.7496 4.9176 15.9449 5.11393C16.1403 5.31026 16.25 5.57655 16.25 5.8542C16.25 6.13186 16.1403 6.39814 15.9449 6.59447C15.7496 6.7908 15.4846 6.9011 15.2083 6.9011C14.9321 6.9011 14.6671 6.7908 14.4718 6.59447C14.2764 6.39814 14.1667 6.13186 14.1667 5.8542C14.1667 5.57655 14.2764 5.31026 14.4718 5.11393C14.6671 4.9176 14.9321 4.8073 15.2083 4.8073ZM10.8333 6.06358C11.9384 6.06358 12.9982 6.50477 13.7796 7.2901C14.561 8.07543 15 9.14056 15 10.2512C15 11.3618 14.561 12.4269 13.7796 13.2123C12.9982 13.9976 11.9384 14.4388 10.8333 14.4388C9.72826 14.4388 8.66846 13.9976 7.88706 13.2123C7.10565 12.4269 6.66667 11.3618 6.66667 10.2512C6.66667 9.14056 7.10565 8.07543 7.88706 7.2901C8.66846 6.50477 9.72826 6.06358 10.8333 6.06358ZM10.8333 7.73862C10.1703 7.73862 9.53441 8.00334 9.06557 8.47453C8.59673 8.94573 8.33333 9.58481 8.33333 10.2512C8.33333 10.9176 8.59673 11.5566 9.06557 12.0278C9.53441 12.499 10.1703 12.7637 10.8333 12.7637C11.4964 12.7637 12.1323 12.499 12.6011 12.0278C13.0699 11.5566 13.3333 10.9176 13.3333 10.2512C13.3333 9.58481 13.0699 8.94573 12.6011 8.47453C12.1323 8.00334 11.4964 7.73862 10.8333 7.73862Z" fill="black"/>
</svg>
