<svg width="49" height="49" viewBox="0 0 49 49" fill="none" xmlns="http://www.w3.org/2000/svg">
<path d="M24.498 4.06903C13.2423 4.07107 4.08336 13.23 4.08131 24.4877C4.08131 35.7455 13.2402 44.9044 24.5 44.9044C35.7578 44.9024 44.9167 35.7434 44.9167 24.4877C44.9167 13.23 35.7578 4.07107 24.498 4.06903ZM24.5 40.8211C15.4922 40.8211 8.16465 33.4935 8.16465 24.4877C8.16669 15.4819 15.4942 8.15441 24.498 8.15236C33.5058 8.15441 40.8334 15.4819 40.8334 24.4877C40.8334 33.4915 33.5058 40.819 24.5 40.8211Z" fill="#E9C37A"/>
<path d="M24.5245 16.3109L16.3476 24.4877L24.5245 32.6626V26.5294H32.6789V22.4461H24.5245V16.3109Z" fill="#E9C37A"/>
</svg>
