<svg width="49" height="49" viewBox="0 0 49 49" fill="none" xmlns="http://www.w3.org/2000/svg">
<path d="M24.498 4.06903C13.2402 4.07107 4.08131 13.23 4.08131 24.4877C4.08131 35.7455 13.2402 44.9044 24.5 44.9044C35.7557 44.9044 44.9146 35.7455 44.9167 24.4877C44.9167 13.23 35.7578 4.07107 24.498 4.06903ZM24.5 40.8211C15.4922 40.8211 8.16465 33.4935 8.16465 24.4877C8.16465 15.4819 15.4922 8.15441 24.498 8.15236C33.5058 8.15441 40.8334 15.4819 40.8334 24.4877C40.8313 33.4935 33.5038 40.8211 24.5 40.8211Z" fill="white"/>
<path d="M24.5 22.4461H16.3333V26.5294H24.5V32.6667L32.6769 24.4898L24.5 16.315V22.4461Z" fill="white"/>
</svg>
