<svg width="20" height="21" viewBox="0 0 20 21" fill="none" xmlns="http://www.w3.org/2000/svg">
<path d="M12.5583 1.87598H7.44166C2.77499 1.87598 1.66666 2.98988 1.66666 7.68V12.8224C1.66666 17.5125 2.77499 18.6264 7.44166 18.6264H12.5583C17.225 18.6264 18.3333 17.5125 18.3333 12.8224V7.68C18.3333 2.98988 17.225 1.87598 12.5583 1.87598ZM15.125 13.8274H13.9083C13.45 13.8274 13.3083 13.4505 12.5 12.6214C11.7667 11.9262 11.45 11.8257 11.275 11.8257C11.0333 11.8257 10.9583 11.8927 10.9583 12.2445V13.3416C10.9583 13.6348 10.8667 13.819 10.0917 13.819C8.80832 13.819 7.38332 13.0318 6.38332 11.5828C4.87499 9.45554 4.46666 7.8475 4.46666 7.52924C4.46666 7.35336 4.52499 7.18586 4.87499 7.18586H6.09999C6.40832 7.18586 6.52499 7.31986 6.64166 7.65487C7.24166 9.41366 8.24166 10.9212 8.64999 10.9212C8.80832 10.9212 8.87499 10.8458 8.87499 10.4606V8.6599C8.83332 7.83913 8.39166 7.76375 8.39166 7.47062C8.39166 7.31986 8.50832 7.18586 8.69999 7.18586H10.6083C10.8667 7.18586 10.9583 7.31986 10.9583 7.63812V10.0586C10.9583 10.3182 11.0667 10.4103 11.15 10.4103C11.3 10.4103 11.4333 10.3182 11.7083 10.0334C12.5833 9.05353 13.2083 7.53762 13.2083 7.53762C13.2917 7.36174 13.425 7.19423 13.75 7.19423H14.9417C15.3083 7.19423 15.3917 7.38686 15.3083 7.6465C15.1583 8.35839 13.675 10.4606 13.6917 10.4606C13.5583 10.6699 13.5083 10.7621 13.6917 11.005C13.8167 11.1808 14.2417 11.5493 14.525 11.876C15.0417 12.4706 15.4417 12.9648 15.55 13.3081C15.6417 13.6515 15.475 13.8274 15.125 13.8274Z" fill="black"/>
</svg>
