<svg width="21" height="21" viewBox="0 0 21 21" fill="none" xmlns="http://www.w3.org/2000/svg">
<path d="M10.7 1.87603C6.15 1.87603 2.44167 5.60299 2.44167 10.1759C2.44167 11.6415 2.825 13.0653 3.54167 14.3216L2.375 18.6264L6.75 17.4707C7.95833 18.1323 9.31667 18.4841 10.7 18.4841C15.25 18.4841 18.9583 14.7571 18.9583 10.1842C18.9583 7.9648 18.1 5.87938 16.5417 4.31321C15.7777 3.53761 14.8677 2.92265 13.8647 2.50421C12.8617 2.08577 11.7859 1.87222 10.7 1.87603ZM10.7083 3.27469C12.5417 3.27469 14.2583 3.99495 15.5583 5.30149C16.1963 5.94249 16.7022 6.70376 17.0468 7.54166C17.3914 8.37955 17.5681 9.27757 17.5667 10.1842C17.5667 13.9866 14.4833 17.077 10.7 17.077C9.46667 17.077 8.25833 16.7504 7.20833 16.1139L6.95833 15.9715L4.35833 16.6583L5.05 14.1122L4.88333 13.8442C4.19495 12.7459 3.83084 11.4739 3.83333 10.1759C3.84167 6.37351 6.91667 3.27469 10.7083 3.27469ZM7.775 6.34001C7.64167 6.34001 7.41667 6.39026 7.225 6.59964C7.04167 6.80902 6.5 7.31991 6.5 8.33331C6.5 9.35509 7.24167 10.335 7.33333 10.4774C7.45 10.6197 8.8 12.7135 10.875 13.6013C11.3667 13.8274 11.75 13.9531 12.05 14.0452C12.5417 14.2043 12.9917 14.1792 13.35 14.129C13.75 14.0703 14.5667 13.6264 14.7417 13.1407C14.9167 12.6549 14.9167 12.2445 14.8667 12.1524C14.8083 12.0687 14.675 12.0184 14.4667 11.9263C14.2583 11.809 13.2417 11.3065 13.0583 11.2395C12.8667 11.1725 12.75 11.139 12.5917 11.34C12.4583 11.5494 12.0583 12.0184 11.9417 12.1524C11.8167 12.2948 11.7 12.3115 11.5 12.211C11.2833 12.1022 10.6167 11.8844 9.83333 11.1809C9.21667 10.6281 8.80833 9.94973 8.68333 9.74035C8.58333 9.53934 8.675 9.41371 8.775 9.32159C8.86667 9.22946 9 9.07871 9.08333 8.95308C9.19167 8.83582 9.225 8.7437 9.29167 8.60969C9.35833 8.46732 9.325 8.35006 9.275 8.24956C9.225 8.15743 8.80833 7.11891 8.63333 6.70852C8.46667 6.30651 8.3 6.35676 8.16667 6.34839C8.05 6.34839 7.91667 6.34001 7.775 6.34001Z" fill="black"/>
</svg>
