<?xml version="1.0" encoding="utf-8"?><svg viewBox="0 0 24 24" xmlns="http://www.w3.org/2000/svg" xmlns:xlink="http://www.w3.org/1999/xlink"><style>:root>svg{display:none}:root>svg:target{display:block}</style><svg viewBox="0 0 24 24" id="heart" xmlns="http://www.w3.org/2000/svg"><path d="M12 21a.998.998 0 01-.71-.29l-7.77-7.78a5.26 5.26 0 010-7.4 5.24 5.24 0 017.4 0L12 6.61l1.08-1.08a5.24 5.24 0 017.4 0 5.26 5.26 0 010 7.4l-7.77 7.78A1.001 1.001 0 0112 21zM7.22 6a3.2 3.2 0 00-2.28.94 3.24 3.24 0 000 4.57L12 18.58l7.06-7.07a3.24 3.24 0 000-4.57 3.32 3.32 0 00-4.56 0l-1.79 1.8a1 1 0 01-1.42 0L9.5 6.94A3.2 3.2 0 007.22 6z"/></svg><svg viewBox="0 0 24 24" id="person" xmlns="http://www.w3.org/2000/svg"><path d="M12 11a4 4 0 100-8 4 4 0 000 8zm0-6a2 2 0 110 4 2 2 0 010-4zm0 8a7 7 0 00-7 7 1 1 0 102 0 5 5 0 1110 0 1 1 0 002 0 7 7 0 00-7-7z"/></svg><svg viewBox="0 0 24 24" id="search" xmlns="http://www.w3.org/2000/svg"><path d="M20.71 19.29l-3.4-3.39A7.92 7.92 0 0019 11a8 8 0 10-8 8 7.92 7.92 0 004.9-1.69l3.39 3.4a1.002 1.002 0 001.639-.325 1 1 0 00-.219-1.095zM5 11a6 6 0 1112 0 6 6 0 01-12 0z"/></svg></svg>